<svg xmlns="http://www.w3.org/2000/svg" width="37.88" height="39.956" viewBox="0 0 37.88 39.956"><g transform="translate(-422.62 -306.406)"><path d="M1560.115,94.048l3.659-3.754,6.249,6.18a4.123,4.123,0,0,0,2.589,1.423,4.371,4.371,0,0,0,2.661-1.451l6.13-6.152,3.754,3.611-7.308,7.355a1.323,1.323,0,0,1-.126.115,8.628,8.628,0,0,1-5.087,1.844,8.823,8.823,0,0,1-5.245-2.045c-.036-.03-.064-.056-.1-.089Z" transform="translate(-1131.07 216.112)" fill="#ffbc03"/><path d="M1560.115,117.81l3.659,3.754,6.249-6.18a4.123,4.123,0,0,1,2.589-1.423,4.371,4.371,0,0,1,2.661,1.451l6.13,6.152,3.754-3.611-7.308-7.356a1.484,1.484,0,0,0-.126-.114,8.628,8.628,0,0,0-5.087-1.844,8.823,8.823,0,0,0-5.245,2.045c-.036.03-.064.056-.1.089Z" transform="translate(-1131.077 224.797)" fill="#ff013a"/><path d="M1583.58,119.108l3.754-3.659-6.18-6.249a4.123,4.123,0,0,1-1.423-2.589,4.372,4.372,0,0,1,1.451-2.661l6.153-6.13-3.613-3.754-7.355,7.308a1.48,1.48,0,0,0-.114.126,8.632,8.632,0,0,0-1.844,5.087,8.824,8.824,0,0,0,2.045,5.245c.03.035.056.064.089.1Z" transform="translate(-1126.834 219.336)" fill="#00a0e3"/><path d="M1559.956,119.108l-3.753-3.659,6.179-6.249a4.123,4.123,0,0,0,1.423-2.589,4.373,4.373,0,0,0-1.449-2.661l-6.153-6.13,3.611-3.754,7.355,7.308a1.459,1.459,0,0,1,.114.126,8.632,8.632,0,0,1,1.844,5.087,8.834,8.834,0,0,1-2.044,5.245c-.031.035-.057.064-.089.1Z" transform="translate(-1133.583 219.336)" fill="#00b71f"/></g></svg>