<!-- Generator: Adobe Illustrator 25.2.1, SVG Export Plug-In  -->
<svg version="1.1" xmlns="http://www.w3.org/2000/svg" xmlns:xlink="http://www.w3.org/1999/xlink" x="0px" y="0px"
	 width="70px" height="70px" viewBox="0 0 1070.2 710.2" style="overflow:visible;enable-background:new 0 0 1070.2 710.2;"
	 xml:space="preserve">
<style type="text/css">
	.st0{fill:#303383;}
	.st1{fill:#FFFFFF;stroke:#303383;stroke-width:0.856;stroke-miterlimit:10;}
	.st2{fill:#1EAE4B;}
	.st3{fill:#009CD8;}
	.st4{fill:#E71948;}
	.st5{fill:#FBC028;}
</style>
<defs>
</defs>
<g>
	<path class="st0" d="M471.1,536.1c41.8,39.5,89.7,69.6,144.3,80.5c52.9,13.3,113.7,8.4,177.6-24.5c-62.2,43.2-125.1,55.9-181,44.2
		c-59.8-9-112.6-41.4-159.3-84.3c-42.7-38.3-79.1-85.1-107.7-132.1c-14.3-26.2-31-54-43.8-84.7c-12.7-23.3-21-47.2-30.5-71
		c-2.2,13.1-5.4,27.3-10.5,43C236.8,377.6,198.3,450.8,156,515c38.8-5.4,67.7-10.3,97.7-15.3c47.1-7.9,80.3-13.5,98.6-16.6
		c-26.5,19.3-63,31.8-92.5,39.9c-38,9.6-83.1,17.1-121.6,17.2c-8.7,14.1-19.5,28.6-32.4,43.5c-16.6,19.7-34,40.6-52.9,59.6
		c-20.8,20.4-23.7,23-29.1,23.9c-9.5,2.7-21.7-4.8-23.4-21.4c0.6-9.6,2.8-22.7,7.9-32c4.4-7.1,14.8-3.5,13.9,4
		c0.3,8.4-0.6,16,0.4,22.2c21.9-20.6,45.1-46.7,64.2-71.1c60-76.7,119.1-178.7,149.2-269.4c9.7-28.1,17.4-61.1,17.7-92.9
		c-5.1-17.1-8.8-33.4-13.9-50.6c-2-12.3,13.3-19.2,21.8-7.9c4.2,5.6,7.6,12.5,9.7,18.5c4,11,5.7,21.2,5.1,30.9
		c13.4,41.1,29.1,82.9,49.7,127.1c14.4,27.2,29.2,56.4,43.2,81.6C396.7,452.3,430.8,498.4,471.1,536.1"/>
	<path class="st1" d="M471.1,536.1c41.8,39.5,89.7,69.6,144.3,80.5c52.9,13.3,113.7,8.4,177.6-24.5c-62.2,43.2-125.1,55.9-181,44.2
		c-59.8-9-112.6-41.4-159.3-84.3c-42.7-38.3-79.1-85.1-107.7-132.1c-14.3-26.2-31-54-43.8-84.7c-12.7-23.3-21-47.2-30.5-71
		c-2.2,13.1-5.4,27.3-10.5,43C236.8,377.6,198.3,450.8,156,515c38.8-5.4,67.7-10.3,97.7-15.3c47.1-7.9,80.3-13.5,98.6-16.6
		c-26.5,19.3-63,31.8-92.5,39.9c-38,9.6-83.1,17.1-121.6,17.2c-8.7,14.1-19.5,28.6-32.4,43.5c-16.6,19.7-34,40.6-52.9,59.6
		c-20.8,20.4-23.7,23-29.1,23.9c-9.5,2.7-21.7-4.8-23.4-21.4c0.6-9.6,2.8-22.7,7.9-32c4.4-7.1,14.8-3.5,13.9,4
		c0.3,8.4-0.6,16,0.4,22.2c21.9-20.6,45.1-46.7,64.2-71.1c60-76.7,119.1-178.7,149.2-269.4c9.7-28.1,17.4-61.1,17.7-92.9
		c-5.1-17.1-8.8-33.4-13.9-50.6c-2-12.3,13.3-19.2,21.8-7.9c4.2,5.6,7.6,12.5,9.7,18.5c4,11,5.7,21.2,5.1,30.9
		c13.4,41.1,29.1,82.9,49.7,127.1c14.4,27.2,29.2,56.4,43.2,81.6C396.7,452.3,430.8,498.4,471.1,536.1z"/>
	<path class="st0" d="M1031.5,244.5c-54.3,80.5-155.9,162-222,209.9c-3.6,49-6.9,104.2-9.3,151.8c-3.2,63-1.9,77.1-0.2,78.8
		c4.6,19.2-12.6,35.3-18.2,16c-2.7-1.9-5.4-11.6-2.9-85.5c1.8-41.5,4.6-92.1,8.7-145.7c-31.5,23.4-96.3,71.9-123.3,89.7
		c-9.2,4.9-15.2-19.1-4.1-23.8c26.6-22.5,101.5-75.8,130.1-98c3.8-50.5,8.5-93.2,12.7-129.7c9.6-68.2,17.6-123.9,23.3-132.4
		c8.7-17.3,23.7,3.3,15,20.7c0,0-8,48-16.5,114.8c-5.2,28.7-7.4,65.5-12.3,109.6c61.1-47,155.6-124.9,205.3-198.3
		c13.8-19.7,30.6-49.8,31.5-74.4c1.5-13.7-2.3-31.3-17.8-47.4c-25.9-26.9-143.9-56.2-175-61.5c-79.5-13.5-200.5-9.7-278.5,7.2
		C537.3,54.6,474.7,72,437,99.1c-7.3,5.2-28.3,20.8-28.3,37.7c1.6,20.3-20.1,25-19.6,3.4c-1.2-23.4,13.3-41.4,26.2-53.5
		C456.8,50.9,531.5,29,578,18.5c81-18,202.3-24.1,281.9-11.4c35,5.6,154.8,35.4,183.2,65.7c17.4,16.4,29.1,41.3,26.4,73.3
		C1068.2,183.2,1048.7,219.1,1031.5,244.5"/>
	<path class="st1" d="M1031.5,244.5c-54.3,80.5-155.9,162-222,209.9c-3.6,49-6.9,104.2-9.3,151.8c-3.2,63-1.9,77.1-0.2,78.8
		c4.6,19.2-12.6,35.3-18.2,16c-2.7-1.9-5.4-11.6-2.9-85.5c1.8-41.5,4.6-92.1,8.7-145.7c-31.5,23.4-96.3,71.9-123.3,89.7
		c-9.2,4.9-15.2-19.1-4.1-23.8c26.6-22.5,101.5-75.8,130.1-98c3.8-50.5,8.5-93.2,12.7-129.7c9.6-68.2,17.6-123.9,23.3-132.4
		c8.7-17.3,23.7,3.3,15,20.7c0,0-8,48-16.5,114.8c-5.2,28.7-7.4,65.5-12.3,109.6c61.1-47,155.6-124.9,205.3-198.3
		c13.8-19.7,30.6-49.8,31.5-74.4c1.5-13.7-2.3-31.3-17.8-47.4c-25.9-26.9-143.9-56.2-175-61.5c-79.5-13.5-200.5-9.7-278.5,7.2
		C537.3,54.6,474.7,72,437,99.1c-7.3,5.2-28.3,20.8-28.3,37.7c1.6,20.3-20.1,25-19.6,3.4c-1.2-23.4,13.3-41.4,26.2-53.5
		C456.8,50.9,531.5,29,578,18.5c81-18,202.3-24.1,281.9-11.4c35,5.6,154.8,35.4,183.2,65.7c17.4,16.4,29.1,41.3,26.4,73.3
		C1068.2,183.2,1048.7,219.1,1031.5,244.5z"/>
	<path class="st2" d="M522,262.7c27.3,27.3,27.3,71.7,0,99l-62.4,62.4l-33.6-33.6l62.4-62.4c8.8-8.8,8.8-23.1,0-31.9"/>
	<path class="st2" d="M522,361.8c27.3-27.3,27.3-71.7,0-99l-62.4-62.4l-33.6,33.6l62.4,62.4c8.8,8.8,8.8,23.1,0,31.9"/>
	<path class="st3" d="M637.9,361.8c-27.3-27.3-27.3-71.7,0-99l62.4-62.4l33.5,33.6l-62.3,62.4c-8.8,8.8-8.8,23.1,0,31.9"/>
	<path class="st3" d="M637.9,262.7c-27.3,27.3-27.3,71.7,0,99l62.4,62.4l33.5-33.6l-62.3-62.4c-8.8-8.8-8.8-23.1,0-31.9"/>
	<path class="st4" d="M530.4,370.2c27.3-27.3,71.7-27.3,99,0l62.4,62.4l-33.6,33.6l-62.4-62.4c-8.8-8.8-23.1-8.8-31.9,0"/>
	<path class="st4" d="M629.5,370.2c-27.3-27.3-71.7-27.3-99,0l-62.4,62.4l33.6,33.6l62.4-62.4c8.8-8.8,23.1-8.8,31.9,0"/>
	<path class="st5" d="M629.5,254.3c-27.3,27.3-71.7,27.3-99,0l-62.4-62.4l33.6-33.6l62.4,62.4c8.8,8.8,23.1,8.8,31.9,0"/>
	<path class="st5" d="M530.4,254.3c27.3,27.3,71.7,27.3,99,0l62.4-62.4l-33.6-33.6l-62.4,62.4c-8.8,8.8-23.1,8.8-31.9,0"/>
</g>
</svg>