<!-- Generator: Adobe Illustrator 25.2.1, SVG Export Plug-In  -->
<svg version="1.1" xmlns="http://www.w3.org/2000/svg" xmlns:xlink="http://www.w3.org/1999/xlink" x="0px" y="0px" width="180px"
	 height="29.5px" viewBox="0 0 180 29.5" style="overflow:visible;enable-background:new 0 0 180 29.5;" xml:space="preserve">
<style type="text/css">
	.st0{fill:#FFFFFF;}
	.st1{fill:#1EAE4B;}
	.st2{fill:#009CD8;}
	.st3{fill:#E71948;}
	.st4{fill:#FBC028;}
</style>
<defs>
</defs>
<g>
	<path class="st0" d="M57.8,20.3h-3.4c-0.6,0-0.7-0.2-1-0.8c0-0.1-0.2-0.5-0.4-1.2h-4.6c-0.2,0.7-0.4,1.1-0.4,1.2
		c-0.2,0.5-0.3,0.8-1,0.8h-3.4c-0.4,0-0.6-0.3-0.4-0.7c0.2-0.5,4.8-13.2,5-13.5c0.1-0.4,0.3-0.5,0.7-0.5h3.6c0.4,0,0.5,0.2,0.7,0.5
		c0.2,0.4,4.8,13.1,5,13.5C58.4,20.1,58.2,20.3,57.8,20.3 M51.9,14.7c-0.4-1.1-0.7-2.3-1.1-3.5c-0.4,1.2-0.7,2.4-1.1,3.5H51.9z"/>
	<path class="st0" d="M14.6,20.3h-3.4c-0.6,0-0.7-0.2-1-0.8c0-0.1-0.2-0.5-0.4-1.2H5.2C5,19,4.9,19.5,4.8,19.6
		c-0.2,0.5-0.3,0.8-1,0.8H0.5c-0.4,0-0.6-0.3-0.4-0.7c0.2-0.5,4.8-13.2,5-13.5c0.1-0.4,0.3-0.5,0.7-0.5h3.6c0.4,0,0.5,0.2,0.7,0.5
		c0.2,0.4,4.8,13.1,5,13.5C15.2,20.1,15,20.3,14.6,20.3 M8.6,14.7c-0.4-1.1-0.7-2.3-1.1-3.5c-0.4,1.2-0.7,2.4-1.1,3.5H8.6z"/>
	<path class="st0" d="M27.1,20.3c-0.6,0-0.8-0.2-1.1-0.5l-4.7-7.1v7.1c0,0.3-0.3,0.5-0.5,0.5h-3.3c-0.3,0-0.5-0.2-0.5-0.5V6.1
		c0-0.3,0.3-0.5,0.5-0.5h2.4c0.5,0,0.7,0.2,1.2,0.8c0.4,0.6,4.6,6.8,4.6,6.8v-7c0-0.3,0.2-0.5,0.5-0.5h3.3c0.3,0,0.5,0.2,0.5,0.5
		v13.7c0,0.3-0.2,0.5-0.5,0.5"/>
	<path class="st0" d="M43,6.1v2.6c0,0.3-0.2,0.5-0.5,0.5h-5.8v1.9h4.7c0.3,0,0.5,0.2,0.5,0.5v2.6c0,0.3-0.2,0.5-0.5,0.5h-4.7v5.1
		c0,0.3-0.3,0.5-0.5,0.5h-3.3c-0.3,0-0.5-0.2-0.5-0.5V6.1c0-0.3,0.2-0.5,0.5-0.5h9.7C42.8,5.5,43,5.8,43,6.1"/>
	<path class="st0" d="M72.7,11.1c0,3-1.8,5.9-6.8,5.9h-1.5v2.8c0,0.3-0.3,0.5-0.5,0.5h-3.3c-0.3,0-0.5-0.2-0.5-0.5V6.1
		c0-0.3,0.3-0.5,0.5-0.5h5.3C70.3,5.5,72.7,8,72.7,11.1 M68.2,11.2c0-0.7-0.4-2-2.6-2h-1.1v4.2h1.2C67.9,13.4,68.2,11.8,68.2,11.2"
		/>
	<path class="st0" d="M86.1,17.2v2.6c0,0.3-0.2,0.5-0.5,0.5H75.4c-0.3,0-0.5-0.2-0.5-0.5V6.1c0-0.3,0.2-0.5,0.5-0.5h3.3
		c0.3,0,0.5,0.2,0.5,0.5v10.6h6.4C85.9,16.7,86.1,16.9,86.1,17.2"/>
	<path class="st0" d="M102.8,20.3h-3.4c-0.6,0-0.7-0.2-1-0.8c0-0.1-0.2-0.5-0.4-1.2h-4.6C93.2,19,93,19.5,93,19.6
		c-0.2,0.5-0.3,0.8-1,0.8h-3.4c-0.4,0-0.6-0.3-0.4-0.7c0.2-0.5,4.8-13.2,5-13.5c0.1-0.4,0.3-0.5,0.7-0.5h3.6c0.4,0,0.5,0.2,0.7,0.5
		c0.2,0.4,4.8,13.1,5,13.5C103.3,20.1,103.1,20.3,102.8,20.3 M96.8,14.7c-0.4-1.1-0.7-2.3-1.1-3.5c-0.4,1.2-0.7,2.4-1.1,3.5H96.8z"
		/>
	<path class="st0" d="M116,14.3h3.3c0.3,0,0.4,0.3,0.3,0.6c-0.8,3.4-3.8,5.6-7.5,5.6c-4.3,0-7.9-3.4-7.9-7.7c0-4.2,3.6-7.6,7.9-7.6
		c3.7,0,6.6,2.2,7.4,5.6c0.1,0.3,0,0.6-0.3,0.6H116c-0.3,0-0.4-0.1-0.4-0.3C115,9.7,113.8,9,112.2,9c-2.1,0-3.6,1.7-3.6,3.9
		c0,2.2,1.5,3.9,3.6,3.9c1.6,0,2.8-0.7,3.4-2.2C115.6,14.5,115.8,14.3,116,14.3"/>
	<path class="st0" d="M132.8,17.2v2.6c0,0.3-0.2,0.5-0.5,0.5h-9.7c-0.3,0-0.5-0.2-0.5-0.5V6.1c0-0.3,0.2-0.5,0.5-0.5h9.7
		c0.3,0,0.5,0.2,0.5,0.5v2.6c0,0.3-0.3,0.5-0.5,0.5h-5.8v1.9h4.7c0.3,0,0.5,0.2,0.5,0.5v2.6c0,0.3-0.3,0.5-0.5,0.5h-4.7v1.9h5.9
		C132.5,16.7,132.8,16.9,132.8,17.2"/>
	<path class="st0" d="M106.1,23.2c0-0.2,0.3-0.5,0.7-0.5c0.3,0,0.6,0.2,0.7,0.5l0.8,2.7h0l0.8-2.7c0.1-0.2,0.3-0.5,0.7-0.5
		c0.4,0,0.6,0.3,0.7,0.5L111,27c0,0,0,0.1,0,0.1c0,0.3-0.2,0.5-0.5,0.5c-0.3,0-0.5-0.2-0.5-0.5l-0.4-2.8h0l-0.8,2.8
		c0,0.2-0.2,0.4-0.5,0.4c-0.4,0-0.5-0.2-0.5-0.4l-0.8-2.8h0l-0.4,2.8c0,0.3-0.2,0.5-0.5,0.5c-0.3,0-0.5-0.2-0.5-0.5c0,0,0-0.1,0-0.1
		"/>
	<path class="st0" d="M116.4,23.2c0.1-0.3,0.4-0.6,0.7-0.6c0.4,0,0.6,0.2,0.7,0.6l1.3,3.7c0,0.1,0.1,0.2,0.1,0.3
		c0,0.3-0.2,0.4-0.5,0.4c-0.3,0-0.4-0.1-0.5-0.4l-0.2-0.6h-1.9l-0.2,0.6c-0.1,0.2-0.2,0.4-0.5,0.4c-0.3,0-0.5-0.2-0.5-0.5
		c0-0.1,0-0.2,0-0.2 M116.4,25.7h1.3l-0.6-2h0L116.4,25.7z"/>
	<path class="st0" d="M123.2,23.2c0-0.3,0.2-0.5,0.5-0.5c0.3,0,0.5,0.2,0.5,0.5v3.4h1.2c0.3,0,0.5,0.3,0.5,0.5
		c0,0.2-0.2,0.4-0.5,0.4h-1.7c-0.3,0-0.5-0.2-0.5-0.6"/>
	<path class="st0" d="M129.9,23.2c0-0.3,0.2-0.5,0.5-0.5c0.3,0,0.5,0.2,0.5,0.5v3.4h1.2c0.3,0,0.5,0.3,0.5,0.5
		c0,0.2-0.2,0.4-0.5,0.4h-1.7c-0.3,0-0.5-0.2-0.5-0.6"/>
	<path class="st0" d="M155.3,22.2c1.7,1.6,3.7,2.9,5.9,3.3c2.2,0.5,4.7,0.3,7.3-1c-2.6,1.8-5.2,2.3-7.5,1.8
		c-2.5-0.4-4.6-1.7-6.6-3.5c-1.8-1.6-3.3-3.5-4.4-5.4c-0.6-1.1-1.3-2.2-1.8-3.5c-0.5-1-0.9-1.9-1.3-2.9c-0.1,0.5-0.2,1.1-0.4,1.8
		c-1,2.9-2.6,5.9-4.3,8.6c1.6-0.2,2.8-0.4,4-0.6c1.9-0.3,3.3-0.6,4.1-0.7c-1.1,0.8-2.6,1.3-3.8,1.6c-1.6,0.4-3.4,0.7-5,0.7
		c-0.4,0.6-0.8,1.2-1.3,1.8c-0.7,0.8-1.4,1.7-2.2,2.5c-0.9,0.8-1,0.9-1.2,1c-0.4,0.1-0.9-0.2-1-0.9c0-0.4,0.1-0.9,0.3-1.3
		c0.2-0.3,0.6-0.1,0.6,0.2c0,0.3,0,0.7,0,0.9c0.9-0.8,1.9-1.9,2.6-2.9c2.5-3.2,4.9-7.4,6.1-11.1c0.4-1.2,0.7-2.5,0.7-3.8
		c-0.2-0.7-0.4-1.4-0.6-2.1c-0.1-0.5,0.5-0.8,0.9-0.3c0.2,0.2,0.3,0.5,0.4,0.8c0.2,0.5,0.2,0.9,0.2,1.3c0.6,1.7,1.2,3.4,2,5.2
		c0.6,1.1,1.2,2.3,1.8,3.4C152.2,18.7,153.6,20.6,155.3,22.2"/>
	<path class="st0" d="M136.7,27.7c-0.4,0-0.8-0.3-0.9-1c0-0.3,0.1-0.9,0.3-1.4c0.1-0.1,0.2-0.2,0.4-0.2c0.1,0,0.2,0.1,0.3,0.1
		c0.1,0.1,0.1,0.2,0.1,0.3c0,0.1,0,0.3,0,0.4c0,0.1,0,0.2,0,0.3c0.8-0.8,1.7-1.8,2.5-2.8c2.7-3.4,5-7.6,6.1-11.1
		c0.3-0.9,0.7-2.3,0.7-3.8c-0.1-0.3-0.2-0.7-0.3-1c-0.1-0.3-0.2-0.7-0.3-1c0-0.2,0-0.4,0.1-0.5c0.1-0.1,0.3-0.2,0.4-0.2
		c0.2,0,0.4,0.1,0.5,0.3c0.2,0.2,0.3,0.5,0.4,0.8c0.2,0.5,0.2,0.9,0.2,1.3c0.6,1.9,1.3,3.6,2,5.2c0.2,0.4,0.4,0.8,0.6,1.2
		c0.4,0.7,0.8,1.5,1.2,2.2c1.3,2.1,2.7,3.9,4.2,5.3c1.9,1.8,3.9,2.9,5.9,3.3c0.7,0.2,1.5,0.3,2.3,0.3h0c1.6,0,3.3-0.4,5-1.3l0.1,0.2
		c-1.9,1.3-3.9,2-5.9,2c-0.6,0-1.1-0.1-1.7-0.2c-2.3-0.3-4.4-1.5-6.6-3.5c-1.6-1.5-3.2-3.3-4.5-5.5c-0.1-0.2-0.3-0.5-0.4-0.7
		c-0.5-0.9-1-1.8-1.4-2.8c-0.4-0.8-0.7-1.6-1-2.3c0-0.1-0.1-0.1-0.1-0.2c-0.1,0.5-0.2,0.9-0.4,1.4c-1.1,3.3-2.9,6.4-4.2,8.4
		c1.5-0.2,2.6-0.4,3.8-0.6l4.5-0.8l-0.4,0.3c-0.9,0.7-2.2,1.2-3.8,1.7c-1,0.3-3.1,0.7-5,0.7c-0.4,0.6-0.8,1.2-1.3,1.8l-0.1,0.1
		c-0.7,0.8-1.4,1.6-2.1,2.4c-0.9,0.9-1,1-1.3,1C136.8,27.7,136.7,27.7,136.7,27.7z M136.5,25.3c0,0-0.1,0-0.2,0.1
		c-0.2,0.4-0.3,1.1-0.3,1.3c0.1,0.6,0.5,0.9,0.8,0.8c0.2,0,0.3-0.1,1.1-1c0.8-0.8,1.4-1.6,2.1-2.4l0.1-0.1c0.5-0.6,1-1.2,1.3-1.8
		l0-0.1l0.1,0c1.9,0,3.9-0.4,5-0.7c1.4-0.4,2.5-0.8,3.3-1.3l-3.5,0.6c-1.2,0.2-2.4,0.4-4,0.6l-0.2,0l0.1-0.2c1.3-2,3.2-5.1,4.3-8.5
		c0.2-0.6,0.3-1.1,0.4-1.8l0.1-0.4l0.1,0.4c0.1,0.2,0.2,0.4,0.2,0.6c0.3,0.8,0.6,1.6,1,2.3c0.4,1,0.9,1.9,1.4,2.8
		c0.1,0.2,0.3,0.5,0.4,0.7c1.3,2.1,2.8,4,4.4,5.4c2.2,2,4.3,3.1,6.5,3.4c1.9,0.4,4,0.1,5.9-0.9c-1.2,0.4-2.4,0.6-3.5,0.6h0
		c-0.8,0-1.6-0.1-2.3-0.3c-2.1-0.4-4.1-1.5-6-3.3c-1.5-1.4-2.9-3.2-4.2-5.4c-0.4-0.7-0.8-1.5-1.2-2.2c-0.2-0.4-0.4-0.8-0.6-1.2
		c-0.8-1.7-1.4-3.4-2.1-5.3l0,0l0,0c0-0.4,0-0.8-0.2-1.2c-0.1-0.3-0.2-0.5-0.4-0.7c-0.2-0.2-0.5-0.2-0.6-0.1c0,0.1-0.1,0.2-0.1,0.3
		c0.1,0.3,0.2,0.7,0.3,1c0.1,0.3,0.2,0.7,0.3,1l0,0l0,0c0,1.5-0.4,2.9-0.7,3.9c-1.2,3.5-3.5,7.7-6.2,11.1c-0.8,1.1-1.8,2.1-2.7,2.9
		l-0.2,0.1l0-0.2c0-0.2,0-0.3,0-0.5c0-0.1,0-0.3,0-0.4c0-0.1,0-0.1,0-0.2C136.6,25.4,136.5,25.3,136.5,25.3z"/>
	<path class="st0" d="M178.3,10.2c-2.2,3.3-6.4,6.7-9.1,8.7c-0.1,2-0.3,4.3-0.4,6.3c-0.1,2.6-0.1,3.2,0,3.2c0.2,0.8-0.5,1.5-0.7,0.7
		c-0.1-0.1-0.2-0.5-0.1-3.5c0.1-1.7,0.2-3.8,0.4-6c-1.3,1-4,3-5.1,3.7c-0.4,0.2-0.6-0.8-0.2-1c1.1-0.9,4.2-3.1,5.4-4
		c0.2-2.1,0.4-3.8,0.5-5.3c0.4-2.8,0.7-5.1,1-5.5c0.4-0.7,1,0.1,0.6,0.9c0,0-0.3,2-0.7,4.7c-0.2,1.2-0.3,2.7-0.5,4.5
		c2.5-1.9,6.4-5.1,8.5-8.2c0.6-0.8,1.3-2.1,1.3-3.1c0.1-0.6-0.1-1.3-0.7-2c-1.1-1.1-5.9-2.3-7.2-2.5c-3.3-0.6-8.3-0.4-11.5,0.3
		c-1.7,0.3-4.2,1.1-5.8,2.2c-0.3,0.2-1.2,0.9-1.2,1.6c0.1,0.8-0.8,1-0.8,0.1c-0.1-1,0.5-1.7,1.1-2.2c1.7-1.5,4.8-2.4,6.7-2.8
		c3.3-0.7,8.3-1,11.6-0.5c1.4,0.2,6.4,1.5,7.5,2.7c0.7,0.7,1.2,1.7,1.1,3C179.9,7.6,179.1,9.1,178.3,10.2"/>
	<path class="st0" d="M168.4,29.5c-0.1,0-0.3-0.1-0.4-0.4c-0.1-0.1-0.2-0.5-0.1-3.6c0.1-1.3,0.2-3.4,0.3-5.8l-0.3,0.2
		c-1.4,1.1-3.6,2.7-4.6,3.3c-0.1,0-0.1,0-0.2,0c-0.2,0-0.4-0.2-0.4-0.5c-0.1-0.3,0-0.6,0.3-0.7c0.7-0.6,2.1-1.6,3.3-2.5
		c0.8-0.6,1.5-1.1,2-1.5c0.2-2,0.3-3.7,0.5-5.2l0-0.1c0.4-3.2,0.7-5.2,1-5.5c0.1-0.3,0.3-0.3,0.4-0.3c0.1,0,0.3,0.1,0.4,0.3
		c0.1,0.2,0.2,0.6,0,1c0,0.2-0.3,2.1-0.7,4.7c-0.1,0.8-0.2,1.7-0.3,2.7c0,0.5-0.1,1-0.2,1.6c3.9-3,6.7-5.7,8.2-8
		c0.4-0.5,1.2-1.9,1.3-3c0-0.4,0-1.1-0.7-1.9c-1-1.1-5.8-2.3-7.2-2.5c-1.3-0.2-2.9-0.3-4.6-0.3c-2.5,0-4.9,0.2-6.8,0.6
		c-1.2,0.2-4,0.9-5.8,2.2c-0.7,0.5-1.1,1-1.1,1.5c0,0.3,0,0.5-0.2,0.7c-0.2,0.2-0.5,0.2-0.7,0c-0.1-0.1-0.2-0.3-0.2-0.6
		c0-0.8,0.3-1.5,1.1-2.3c1.8-1.6,5-2.4,6.8-2.8c2.1-0.5,4.9-0.7,7.6-0.7c1.5,0,3,0.1,4.1,0.3c1.2,0.2,6.4,1.4,7.6,2.7
		c0.8,0.8,1.2,1.9,1.1,3.1c0,1.2-0.6,2.6-1.6,4.1c-2.3,3.4-6.7,6.9-9.1,8.6c-0.1,1.9-0.3,4.1-0.4,6.2c-0.1,2.7-0.1,3.1,0,3.2l0,0
		l0,0c0.1,0.4,0,0.8-0.2,1C168.6,29.4,168.5,29.5,168.4,29.5z M168.4,19.2l0,0.2c-0.2,2.5-0.3,4.6-0.4,6c-0.1,2.7,0,3.4,0.1,3.4l0,0
		l0,0c0.1,0.3,0.3,0.3,0.4,0.2c0.1-0.1,0.2-0.4,0.1-0.7c-0.1-0.1-0.1-0.5,0-3.3c0.1-2.1,0.2-4.4,0.4-6.3l0-0.1l0,0
		c2.4-1.8,6.8-5.2,9.1-8.6c1-1.4,1.5-2.8,1.5-4c0.1-1.2-0.3-2.2-1.1-2.9c-1.1-1.2-6.1-2.5-7.5-2.7c-1.1-0.2-2.5-0.3-4.1-0.3
		c-2.6,0-5.4,0.3-7.5,0.7c-1.7,0.4-4.9,1.3-6.7,2.8c-0.7,0.7-1.1,1.4-1,2.1c0,0.2,0,0.3,0.1,0.4c0.1,0.1,0.2,0.1,0.3,0
		c0.1-0.1,0.2-0.3,0.1-0.5c0-0.7,0.7-1.3,1.2-1.7c1.8-1.3,4.7-2,5.8-2.2c1.9-0.4,4.4-0.6,6.8-0.6c1.8,0,3.4,0.1,4.7,0.3
		c1.4,0.2,6.2,1.5,7.3,2.6c0.8,0.8,0.8,1.6,0.8,2c0,1.2-0.9,2.6-1.3,3.1c-1.6,2.3-4.4,5.1-8.5,8.2l-0.2,0.2l0-0.3
		c0.1-0.6,0.1-1.2,0.2-1.8c0.1-1,0.2-1.9,0.3-2.7c0.3-2.7,0.7-4.7,0.7-4.7l0,0c0.2-0.3,0.1-0.6,0-0.8c-0.1-0.2-0.3-0.2-0.4,0.1
		c-0.2,0.3-0.6,2.9-1,5.4l0,0.1c-0.2,1.5-0.4,3.2-0.5,5.3l0,0l0,0c-0.5,0.4-1.2,0.9-2,1.5c-1.2,0.9-2.6,1.9-3.3,2.5l0,0
		c-0.2,0.1-0.2,0.3-0.2,0.5c0,0.2,0.1,0.3,0.2,0.3c0,0,0,0,0,0c1-0.6,3.2-2.3,4.6-3.3L168.4,19.2z"/>
	<path class="st1" d="M157.3,10.9c1.1,1.1,1.1,3,0,4.1l-2.6,2.6l-1.4-1.4l2.6-2.6c0.4-0.4,0.4-1,0-1.3"/>
	<path class="st1" d="M157.3,15c1.1-1.1,1.1-3,0-4.1l-2.6-2.6l-1.4,1.4l2.6,2.6c0.4,0.4,0.4,1,0,1.3"/>
	<path class="st2" d="M162.1,15c-1.1-1.1-1.1-3,0-4.1l2.6-2.6l1.4,1.4l-2.6,2.6c-0.4,0.4-0.4,1,0,1.3"/>
	<path class="st2" d="M162.1,10.9c-1.1,1.1-1.1,3,0,4.1l2.6,2.6l1.4-1.4l-2.6-2.6c-0.4-0.4-0.4-1,0-1.3"/>
	<path class="st3" d="M157.7,15.3c1.1-1.1,3-1.1,4.1,0l2.6,2.6l-1.4,1.4l-2.6-2.6c-0.4-0.4-1-0.4-1.3,0"/>
	<path class="st3" d="M161.8,15.3c-1.1-1.1-3-1.1-4.1,0l-2.6,2.6l1.4,1.4l2.6-2.6c0.4-0.4,1-0.4,1.3,0"/>
	<path class="st4" d="M161.8,10.6c-1.1,1.1-3,1.1-4.1,0L155.1,8l1.4-1.4l2.6,2.6c0.4,0.4,1,0.4,1.3,0"/>
	<path class="st4" d="M157.7,10.6c1.1,1.1,3,1.1,4.1,0l2.6-2.6L163,6.6l-2.6,2.6c-0.4,0.4-1,0.4-1.3,0"/>
</g>
</svg>