<svg xmlns="http://www.w3.org/2000/svg" width="116.078" height="20.729" viewBox="0 0 116.078 20.729">
  <g id="swatch-logo" transform="translate(-17.716 -17.789)">
    <path id="Path_7" data-name="Path 7" d="M111.33,19.595a1.469,1.469,0,1,1,1.476,1.507A1.462,1.462,0,0,1,111.33,19.595Zm1.476,1.806a1.806,1.806,0,1,0-1.837-1.806A1.8,1.8,0,0,0,112.806,21.4Zm-.377-1.664h.361l.55.895h.345l-.581-.911a.537.537,0,0,0,.534-.565c0-.424-.251-.6-.738-.6h-.8v2.073h.33Zm0-.267v-.644h.424c.22,0,.455.047.455.3,0,.33-.236.346-.5.346ZM32.962,22.2H22.207a4.457,4.457,0,0,0-3.172,1.335,4.305,4.305,0,0,0-1.24,3.095,4.382,4.382,0,0,0,1.256,3.176,4.206,4.206,0,0,0,3.031,1.228h6.658a2.419,2.419,0,0,1,2.512,2.409,2.582,2.582,0,0,1-2.528,2.495H17.716v2.307H28.739a4.929,4.929,0,0,0,4.82-4.8,4.736,4.736,0,0,0-4.82-4.715H22.066a1.908,1.908,0,0,1-1.382-.55,2.152,2.152,0,0,1-.6-1.548,2.047,2.047,0,0,1,.6-1.477,2.148,2.148,0,0,1,1.539-.644h10.74Zm19.658-.078V33.01A3.07,3.07,0,0,1,51.71,35.2a2.994,2.994,0,0,1-2.151.878,3.122,3.122,0,0,1-3.077-3.09V22.123H44.189V33.035a2.928,2.928,0,0,1-.848,2.14,3.049,3.049,0,0,1-2.214.9,2.826,2.826,0,0,1-2.057-.853,3,3,0,0,1-.879-2.2v-10.9H35.883V33.01a5.374,5.374,0,0,0,1.539,3.837,5.147,5.147,0,0,0,3.706,1.532,5.294,5.294,0,0,0,3.847-1.586,5.942,5.942,0,0,0,.408-.457,5.331,5.331,0,0,0,9.531-3.327V22.123Zm17.884-.063h-5.04a8.23,8.23,0,0,0-8.353,8.077,8.425,8.425,0,0,0,8.353,8.38,7.411,7.411,0,0,0,2.732-.471V35.667H67.93l-.22.1a5.056,5.056,0,0,1-2.214.441A6.122,6.122,0,0,1,59.4,30.138a5.856,5.856,0,0,1,6.045-5.77h3.894V38.181h2.308V22.06Zm9.515,14.015a2.891,2.891,0,0,1-2.041-.876,2.62,2.62,0,0,1-.754-1.889V24.368h5.511V22.06H77.226V17.915H74.933V33.282a4.793,4.793,0,0,0,1.4,3.519,5.131,5.131,0,0,0,3.69,1.58h3.266V36.075Z" fill="#fff"/>
    <path id="Path_8" data-name="Path 8" d="M430.328,33.318a5.944,5.944,0,0,1-5.464,3.536,6.01,6.01,0,0,1-4.318-1.768A5.909,5.909,0,0,1,418.8,30.8a6.092,6.092,0,0,1,6.061-6.061,5.893,5.893,0,0,1,4.758,2.493l1.9-1.316a8.186,8.186,0,0,0-6.642-3.486,8.414,8.414,0,0,0-8.385,8.369,8.2,8.2,0,0,0,2.418,5.91,8.361,8.361,0,0,0,13.519-2.456Zm10.693-10.883a6.784,6.784,0,0,0-4.679,1.774V18.557h-2.308V38.823h2.308v-9.4a4.609,4.609,0,0,1,1.366-3.341,4.549,4.549,0,0,1,3.313-1.335,4.773,4.773,0,0,1,4.852,4.712v9.368h2.308V29.435a7.082,7.082,0,0,0-7.16-7" transform="translate(-333.538 -0.642)" fill="#fff"/>
    <path id="Path_9" data-name="Path 9" d="M630.618,46.774h15.639v15.65H630.618Z" transform="translate(-512.63 -24.243)" fill="#da0021" stroke="#da0021" stroke-miterlimit="3.864" stroke-width="0.336"/>
    <path id="Path_10" data-name="Path 10" d="M649.99,58.247h-4.773V53.492h-3.941v4.755h-4.9v3.946h4.9v4.9h3.941v-4.9h4.773Z" transform="translate(-517.446 -29.862)" fill="#fffeff"/>
  </g>
</svg>
