<svg xmlns="http://www.w3.org/2000/svg" width="10" height="10" viewBox="0 0 9.969 9.969"><g transform="translate(-13 -3.013)"><path d="M9.074,1.726H6.814A1.09,1.09,0,0,0,5.148.332a.87.87,0,0,0-.164.234A.871.871,0,0,0,4.821.332,1.09,1.09,0,0,0,3.156,1.726H.9a.9.9,0,0,0-.9.9v.7a.9.9,0,0,0,.623.853v4.91a.9.9,0,0,0,.9.9H8.451a.9.9,0,0,0,.9-.9V4.176a.9.9,0,0,0,.623-.853v-.7A.9.9,0,0,0,9.074,1.726ZM5.3,3.6H4.673V2.349H5.3ZM5.37,1.462c.1-.553.207-.677.219-.69a.467.467,0,0,1,.661.661c-.012.012-.136.122-.685.218-.08.014-.158.026-.23.035C5.345,1.617,5.356,1.54,5.37,1.462ZM3.72.772a.468.468,0,0,1,.661,0c.012.012.122.136.218.685.014.08.026.158.035.23-.07-.009-.147-.021-.225-.035-.553-.1-.677-.207-.69-.219a.468.468,0,0,1,0-.661ZM.623,2.621A.273.273,0,0,1,.9,2.349H4.05V3.6H.9a.273.273,0,0,1-.273-.273Zm.623,6.465V4.218h2.8V9.359H1.519A.273.273,0,0,1,1.246,9.086Zm3.427.273V4.218H5.3V9.359Zm4.05-.273a.273.273,0,0,1-.273.273H5.919V4.218h2.8Zm.623-5.764a.273.273,0,0,1-.273.273H5.919V2.349H9.074a.273.273,0,0,1,.273.273Z" transform="translate(13 3)" fill="#fff"/></g></svg>