<svg xmlns="http://www.w3.org/2000/svg" width="18" height="18.363" viewBox="0 0 18 18.363"><g transform="translate(0.05 0.018)"><path d="M280.919,224.966a10.8,10.8,0,0,0-.159-1.866H272.1v3.536h4.959a4.25,4.25,0,0,1-1.835,2.79v2.294h2.959a8.967,8.967,0,0,0,2.736-6.754Z" transform="translate(-262.969 -215.591)" fill="#4285f4"/><path d="M37.1,331.722a8.789,8.789,0,0,0,6.086-2.216l-2.959-2.294a5.569,5.569,0,0,1-8.279-2.911H28.9v2.365A9.183,9.183,0,0,0,37.1,331.722Z" transform="translate(-27.973 -313.377)" fill="#34a853"/><path d="M3.976,155.88a5.5,5.5,0,0,1,0-3.515V150H.927a9.189,9.189,0,0,0,0,8.245Z" transform="translate(0 -144.957)" fill="#fbbc04"/><path d="M37.1,3.616a4.989,4.989,0,0,1,3.522,1.376l2.621-2.621A8.824,8.824,0,0,0,37.1-.018a9.18,9.18,0,0,0-8.2,5.06l3.05,2.365A5.492,5.492,0,0,1,37.1,3.616Z" transform="translate(-27.973)" fill="#ea4335"/></g></svg>