<svg xmlns="http://www.w3.org/2000/svg" width="48" height="48" viewBox="0 0 48 48"><g transform="translate(-91 -3159.5)"><rect width="48" height="48" transform="translate(91 3159.5)" fill="#fff" opacity="0"/><g transform="translate(131.14 3165.375)"><path d="M27.033,12.375H5.48A1.063,1.063,0,0,1,4.5,11.25h0a1.063,1.063,0,0,1,.98-1.125H27.033a1.063,1.063,0,0,1,.98,1.125h0A1.063,1.063,0,0,1,27.033,12.375Z" transform="translate(-31.896)" fill="#fff"/><path d="M27.033,19.125H5.48A1.063,1.063,0,0,1,4.5,18h0a1.063,1.063,0,0,1,.98-1.125H27.033A1.063,1.063,0,0,1,28.012,18h0A1.063,1.063,0,0,1,27.033,19.125Z" transform="translate(-31.896)" fill="#fff"/><path d="M27.033,25.875H5.48A1.063,1.063,0,0,1,4.5,24.75h0a1.063,1.063,0,0,1,.98-1.125H27.033a1.063,1.063,0,0,1,.98,1.125h0A1.063,1.063,0,0,1,27.033,25.875Z" transform="translate(-31.896)" fill="#fff"/></g></g></svg>