<svg xmlns="http://www.w3.org/2000/svg" width="22" height="22" viewBox="0 0 22 22">
    <g id="Group_727" data-name="Group 727" transform="translate(-61 -140)">
        <g id="qr-code" transform="translate(61 140)">
            <path id="Path_17" data-name="Path 17" d="M373.724,0h-3.079a.645.645,0,0,0,0,1.289h3.079a1.09,1.09,0,0,1,1.089,1.089V5.457a.645.645,0,1,0,1.289,0V2.378A2.381,2.381,0,0,0,373.724,0Z" transform="translate(-354.102 0)" fill="#fff"/>
            <path id="Path_18" data-name="Path 18" d="M.645,6.1a.645.645,0,0,0,.645-.645V2.378A1.09,1.09,0,0,1,2.378,1.289H5.457A.645.645,0,0,0,5.457,0H2.378A2.381,2.381,0,0,0,0,2.378V5.457A.645.645,0,0,0,.645,6.1Z" transform="translate(0 0)" fill="#fff"/>
            <path id="Path_19" data-name="Path 19" d="M5.457,374.813H2.378a1.09,1.09,0,0,1-1.089-1.089v-3.079a.645.645,0,0,0-1.289,0v3.079A2.381,2.381,0,0,0,2.378,376.1H5.457a.645.645,0,1,0,0-1.289Z" transform="translate(0 -354.102)" fill="#fff"/>
            <path id="Path_20" data-name="Path 20" d="M375.457,370a.644.644,0,0,0-.645.645v3.079a1.09,1.09,0,0,1-1.089,1.089h-3.079a.645.645,0,1,0,0,1.289h3.079a2.381,2.381,0,0,0,2.378-2.378v-3.079A.645.645,0,0,0,375.457,370Z" transform="translate(-354.102 -354.102)" fill="#fff"/>
            <path id="Path_21" data-name="Path 21" d="M265.164,264.52v-6.875a.645.645,0,0,0-.645-.645h-6.875a.645.645,0,0,0-.645.645v6.875a.645.645,0,0,0,.645.645h6.875A.645.645,0,0,0,265.164,264.52Zm-1.289-.645h-5.586v-5.586h5.586Z" transform="translate(-245.957 -245.957)" fill="#fff"/>
            <path id="Path_22" data-name="Path 22" d="M297.645,87.1h4.813a.645.645,0,0,0,.645-.645V81.645a.645.645,0,0,0-.645-.645h-4.812a.645.645,0,0,0-.645.645v4.813A.645.645,0,0,0,297.645,87.1Zm.645-4.813h3.523v3.523h-3.523Z" transform="translate(-284.238 -77.52)" fill="#fff"/>
            <path id="Path_23" data-name="Path 23" d="M71.832,65H65.645a.645.645,0,0,0-.645.645v6.188a.645.645,0,0,0,.645.645h6.188a.645.645,0,0,0,.645-.645V65.645A.645.645,0,0,0,71.832,65Zm-.645,6.188h-4.9v-4.9h4.9Z" transform="translate(-62.207 -62.207)" fill="#fff"/>
            <path id="Path_24" data-name="Path 24" d="M71.145,279.188H66.289v-5.543a.645.645,0,0,0-1.289,0v6.188a.645.645,0,0,0,.645.645h5.5a.645.645,0,0,0,0-1.289Z" transform="translate(-62.207 -261.27)" fill="#fff"/>
            <path id="Path_25" data-name="Path 25" d="M130.289,277.082v-3.437a.645.645,0,0,0-1.289,0v3.438a.645.645,0,0,0,1.289,0Z" transform="translate(-123.457 -261.27)" fill="#fff"/>
            <path id="Path_26" data-name="Path 26" d="M193.645,273a.645.645,0,0,0-.645.645v3.438a.645.645,0,0,0,1.289,0v-3.437A.645.645,0,0,0,193.645,273Z" transform="translate(-184.707 -261.27)" fill="#fff"/>
            <path id="Path_27" data-name="Path 27" d="M321.645,338.289h1.375a.645.645,0,1,0,0-1.289h-1.375a.645.645,0,0,0,0,1.289Z" transform="translate(-307.207 -322.52)" fill="#fff"/>
            <path id="Path_28" data-name="Path 28" d="M137.645,130.977a.645.645,0,0,0,.645-.645v-.687a.645.645,0,0,0-1.289,0v.688A.645.645,0,0,0,137.645,130.977Z" transform="translate(-131.113 -123.457)" fill="#fff"/>
        </g>
    </g>
</svg>
