<?xml version="1.0" standalone="no"?>
<!DOCTYPE svg PUBLIC "-//W3C//DTD SVG 20010904//EN"
 "http://www.w3.org/TR/2001/REC-SVG-20010904/DTD/svg10.dtd">
<svg version="1.0" xmlns="http://www.w3.org/2000/svg"
 width="640.000000pt" height="640.000000pt" viewBox="0 0 640.000000 640.000000"
 preserveAspectRatio="xMidYMid meet">
<metadata>
Created by potrace 1.11, written by Peter Selinger 2001-2013
</metadata>
<g transform="translate(0.000000,640.000000) scale(0.100000,-0.100000)"
fill="#000000" stroke="none">
<path d="M1558 6167 c-124 -128 -256 -263 -292 -300 l-66 -68 114 -112 c102
-101 503 -494 921 -903 91 -89 190 -175 240 -208 86 -58 253 -146 278 -146 7
0 17 -4 22 -9 10 -9 162 -55 220 -65 143 -27 322 -28 425 -1 14 3 39 8 57 10
157 23 469 181 580 294 15 16 282 284 592 596 l565 567 -85 80 c-121 115 -479
460 -499 481 -17 17 -40 -4 -556 -520 -297 -296 -548 -545 -559 -553 -81 -62
-258 -129 -325 -124 -39 3 -98 19 -147 40 -17 8 -34 14 -38 14 -30 0 -170 122
-400 351 -273 271 -740 731 -792 781 l-28 27 -227 -232z"/>
<path d="M692 5221 c-48 -50 -248 -257 -466 -484 l-56 -59 529 -526 c290 -290
545 -549 565 -575 52 -70 124 -236 111 -257 -3 -5 -1 -12 5 -15 12 -7 6 -70
-13 -125 -6 -19 -11 -37 -12 -40 0 -3 -7 -21 -14 -40 -40 -98 -111 -177 -635
-705 l-536 -540 179 -175 c99 -96 234 -228 301 -294 l121 -118 157 160 c86 88
315 321 507 517 524 534 497 504 565 605 91 133 158 286 200 455 28 109 29
123 34 250 5 113 -10 248 -34 309 -5 15 -7 26 -4 26 4 0 1 7 -6 15 -7 8 -10
15 -6 15 22 0 -103 272 -178 387 -27 41 -244 264 -649 667 l-607 605 -58 -58z"/>
<path d="M5345 4967 c-443 -440 -868 -866 -881 -881 -57 -65 -145 -215 -191
-326 -35 -83 -78 -238 -89 -315 -10 -68 -11 -249 -2 -312 38 -261 174 -550
344 -730 27 -28 221 -226 431 -440 210 -213 449 -457 531 -541 l150 -154 124
121 c67 66 203 198 301 293 l177 173 -530 535 c-291 294 -542 550 -557 569
-41 50 -79 123 -101 194 -31 95 -33 113 -22 159 6 24 13 54 16 67 7 34 69 155
101 199 15 21 267 276 560 569 l534 531 -123 128 c-68 70 -157 162 -198 205
-41 43 -114 118 -161 167 -47 49 -90 91 -95 93 -5 3 -148 -134 -319 -304z"/>
<path d="M3075 2061 c-6 -5 -17 -8 -70 -15 -140 -19 -351 -104 -500 -202 -124
-80 -80 -40 -640 -589 -192 -189 -421 -413 -508 -498 l-159 -156 140 -143 c77
-79 210 -214 294 -300 l153 -158 535 530 c294 292 562 550 595 574 97 69 251
124 313 110 95 -21 194 -61 262 -107 25 -16 287 -272 583 -569 l538 -538 38
38 c44 42 401 386 498 479 l65 61 -257 259 c-999 1008 -983 993 -1183 1093
-75 37 -230 94 -285 104 -12 2 -40 7 -62 11 -22 4 -49 10 -60 13 -28 7 -284
10 -290 3z"/>
</g>
</svg>
